<?xml version="1.0" standalone="no"?>
<!DOCTYPE svg PUBLIC "-//W3C//DTD SVG 20010904//EN"
 "http://www.w3.org/TR/2001/REC-SVG-20010904/DTD/svg10.dtd">
<svg version="1.0" xmlns="http://www.w3.org/2000/svg"
 width="512.000000pt" height="512.000000pt" viewBox="0 0 512.000000 512.000000"
 preserveAspectRatio="xMidYMid meet">
<metadata>
Created by potrace 1.11, written by Peter Selinger 2001-2013
</metadata>
<g transform="translate(0.000000,512.000000) scale(0.100000,-0.100000)"
fill="#000000" stroke="none">
<path d="M767 3564 c-4 -4 -7 -205 -7 -446 l0 -438 35 0 35 0 -2 443 -3 442
-25 3 c-14 2 -29 0 -33 -4z"/>
<path d="M1926 3131 c-135 -242 -246 -442 -246 -445 0 -4 15 -6 34 -6 33 0 37
4 84 88 27 48 135 240 240 427 105 187 194 348 197 358 6 14 1 17 -28 17 l-34
0 -247 -439z"/>
<path d="M2803 3448 c-250 -443 -413 -735 -418 -750 -6 -15 -1 -18 27 -18 l35
0 242 432 c133 237 243 436 244 442 1 6 -12 12 -29 14 -31 3 -34 0 -101 -120z"/>
<path d="M3220 3125 l0 -445 60 0 60 0 136 122 136 122 -107 101 -107 100 106
94 c58 51 106 95 106 96 0 2 -62 60 -137 129 l-137 126 -58 0 -58 0 0 -445z
m224 282 l98 -92 -78 -71 c-44 -39 -85 -74 -92 -78 -9 -6 -25 3 -48 25 l-34
33 0 138 0 138 28 0 c20 0 51 -23 126 -93z m-137 -304 c-16 -16 -17 -15 -17
17 0 32 1 33 17 17 16 -16 16 -18 0 -34z m211 -156 l23 -24 -97 -87 c-74 -66
-103 -86 -125 -86 l-29 0 0 139 0 139 36 31 36 32 66 -60 c37 -32 77 -70 90
-84z"/>
<path d="M1799 2547 c13 -15 19 -30 15 -40 -5 -13 0 -17 20 -17 38 0 35 35 -6
60 -44 27 -56 25 -29 -3z"/>
<path d="M4000 2503 c0 -18 -47 -141 -71 -184 -10 -20 -12 -20 -21 -6 -15 27
-74 21 -134 -13 l-54 -30 -15 29 c-20 39 -62 71 -93 71 -24 0 -24 -1 9 -23 29
-20 34 -29 37 -69 3 -53 -20 -118 -42 -118 -12 0 -14 -5 -6 -26 6 -14 10 -38
10 -53 0 -29 16 -51 36 -51 15 0 51 92 60 153 7 48 43 93 91 113 53 23 59 19
59 -39 2 -110 46 -129 76 -32 42 135 63 197 70 202 5 2 8 -63 8 -145 0 -206
11 -422 22 -422 5 0 18 21 29 46 19 42 20 62 17 306 l-3 260 -30 24 c-36 28
-55 31 -55 7z"/>
<path d="M2250 2473 c0 -5 4 -15 9 -22 12 -19 -1 -44 -55 -103 -30 -32 -44
-56 -44 -75 0 -33 25 -73 46 -73 23 0 16 -14 -27 -59 -38 -39 -41 -45 -32 -74
8 -27 14 -32 39 -31 31 1 44 -10 44 -39 0 -28 39 -77 60 -77 24 0 33 41 20 90
-7 25 -7 64 -2 110 10 80 2 80 -23 0 -21 -67 -27 -73 -48 -58 -15 12 -12 19
23 72 49 71 50 90 9 105 l-31 11 37 41 c61 68 80 133 48 161 -20 17 -73 32
-73 21z"/>
<path d="M2595 2461 c3 -6 1 -29 -6 -53 -8 -32 -20 -50 -50 -70 -22 -16 -43
-28 -48 -28 -5 0 -15 -7 -22 -17 -13 -15 -15 -13 -19 18 -4 28 -9 34 -29 34
-22 0 -23 -4 -27 -65 -2 -36 -9 -92 -15 -126 -10 -58 -9 -63 18 -107 15 -26
34 -49 41 -52 21 -8 33 4 27 26 -3 10 -7 27 -10 38 -5 15 -1 17 19 14 22 -5
30 2 57 46 18 28 34 51 37 51 2 0 19 -12 37 -27 17 -16 39 -32 48 -38 11 -7
14 -20 10 -43 -10 -61 -47 -52 -84 21 -11 21 -23 37 -25 34 -6 -6 64 -157 84
-179 18 -21 55 -23 70 -5 15 18 30 127 37 278 l6 127 -28 20 c-16 11 -44 22
-63 24 -33 3 -35 5 -38 46 -2 29 -8 42 -18 42 -8 0 -13 -4 -9 -9z m83 -110
c13 -8 13 -22 -4 -158 l-5 -41 -45 25 c-31 18 -43 30 -40 42 3 9 10 39 16 66
7 28 13 56 16 63 4 14 42 16 62 3z m-144 -83 c-14 -29 -30 -55 -33 -58 -4 -3
-17 -18 -29 -34 l-22 -29 0 32 c0 18 7 45 14 60 16 30 85 95 93 88 2 -3 -8
-29 -23 -59z"/>
<path d="M3320 2451 c-8 -5 -40 -11 -70 -15 -62 -7 -133 -21 -232 -43 -36 -8
-88 -13 -115 -11 -46 3 -48 2 -51 -24 -2 -19 3 -31 20 -42 26 -16 44 -14 190
25 48 13 90 20 95 16 4 -5 -20 -35 -55 -69 -34 -33 -62 -62 -62 -65 0 -2 4
-13 10 -23 7 -13 5 -44 -6 -100 -14 -76 -14 -84 3 -118 21 -42 38 -51 46 -22
4 14 13 20 34 20 15 0 38 3 50 6 17 5 25 -1 37 -25 10 -18 24 -31 35 -31 51 0
78 257 31 304 -19 19 -88 10 -128 -18 -45 -31 -52 -32 -52 -8 1 9 34 53 75 96
l75 79 95 -7 c52 -3 95 -3 95 2 0 15 -24 38 -63 60 -21 12 -39 22 -40 22 -1 0
-9 -4 -17 -9z m-60 -266 c0 -33 -2 -34 -28 -29 -16 3 -48 1 -71 -6 -24 -6 -45
-9 -48 -6 -9 9 49 56 81 65 58 17 66 14 66 -24z m-92 -104 c-41 -38 -68 -40
-68 -6 0 20 5 25 28 26 15 0 36 4 47 8 31 13 30 5 -7 -28z m76 2 c-9 -37 -11
-38 -30 -23 -14 12 -13 15 8 32 30 23 30 23 22 -9z"/>
<path d="M1680 2437 c0 -19 21 -37 42 -37 23 0 23 -13 -2 -35 -11 -10 -18 -21
-15 -25 4 -7 1 -13 -118 -171 -43 -57 -82 -103 -87 -102 -5 2 -14 -6 -20 -17
-12 -22 13 -85 37 -94 9 -4 40 35 91 110 63 95 83 119 112 129 19 7 47 17 63
23 45 19 31 -4 -30 -49 -32 -23 -59 -43 -61 -45 -2 -1 1 -11 7 -22 8 -16 7
-21 -5 -26 -24 -9 -4 -28 23 -21 27 6 25 -3 -9 -42 -25 -27 -20 -58 9 -58 13
0 38 -19 63 -47 61 -70 70 -65 70 38 l0 85 54 -30 c59 -34 86 -39 86 -16 0 19
-37 43 -78 51 -18 4 -32 9 -32 11 0 3 19 22 42 42 44 40 45 61 2 61 -16 0 -27
-8 -33 -23 -5 -13 -16 -29 -25 -36 -14 -12 -16 -10 -16 18 0 25 6 35 31 49 20
11 41 37 59 74 l28 57 -24 26 c-15 16 -34 25 -54 25 -31 0 -37 13 -31 78 3 31
-21 37 -86 22 -43 -11 -59 -11 -74 -2 -15 10 -19 9 -19 -1z m150 -82 c0 -23
-35 -54 -47 -42 -4 5 36 67 44 67 2 0 3 -11 3 -25z m60 -55 c-20 -13 -33 -13
-25 0 3 6 14 10 23 10 15 0 15 -2 2 -10z m-70 -20 c0 -10 -89 -54 -96 -47 -7
6 13 23 46 39 42 20 50 21 50 8z m-10 -192 c0 -47 -13 -128 -20 -128 -4 0 -18
9 -31 19 l-24 19 23 24 c26 29 28 46 6 55 -14 5 -12 8 7 19 33 18 39 17 39 -8z"/>
<path d="M2007 1853 c-3 -5 8 -8 24 -9 16 -1 29 3 29 7 0 11 -47 12 -53 2z"/>
<path d="M1887 1703 c-20 -32 -52 -89 -71 -126 -20 -37 -48 -86 -61 -107 -39
-61 -21 -47 23 18 43 62 157 272 149 272 -3 0 -21 -26 -40 -57z"/>
<path d="M1475 1723 c-28 -30 -107 -178 -84 -158 11 10 34 44 51 74 17 31 38
64 46 74 21 23 8 33 -13 10z"/>
<path d="M2819 1738 c0 -2 -3 -48 -6 -103 -3 -74 -2 -97 6 -89 13 12 21 194 9
194 -4 0 -8 -1 -9 -2z"/>
<path d="M2975 1729 c-10 -29 -35 -145 -35 -166 0 -15 5 -21 14 -17 8 3 12 12
9 20 -3 7 3 48 12 90 9 41 14 78 11 81 -3 3 -8 0 -11 -8z"/>
<path d="M2485 1712 c4 -8 11 -26 15 -40 7 -22 8 -23 9 -6 1 11 -6 29 -15 40
-8 10 -12 13 -9 6z"/>
<path d="M1690 1689 c0 -5 5 -7 10 -4 6 3 10 8 10 11 0 2 -4 4 -10 4 -5 0 -10
-5 -10 -11z"/>
<path d="M2278 1673 c-49 -51 -58 -114 -20 -145 13 -11 14 -10 4 9 -23 43 -12
93 31 141 29 32 16 27 -15 -5z"/>
<path d="M3510 1689 c0 -5 5 -7 10 -4 6 3 10 8 10 11 0 2 -4 4 -10 4 -5 0 -10
-5 -10 -11z"/>
<path d="M2362 1652 c-41 -38 -54 -74 -30 -88 7 -4 8 -3 4 4 -10 17 19 67 56
96 18 14 28 26 22 26 -6 0 -29 -17 -52 -38z"/>
<path d="M2533 1625 c7 -13 14 -20 15 -14 5 14 -6 39 -17 39 -5 0 -4 -11 2
-25z"/>
<path d="M2031 1624 c0 -11 3 -14 6 -6 3 7 2 16 -1 19 -3 4 -6 -2 -5 -13z"/>
<path d="M2404 1627 c3 -10 6 -23 6 -28 0 -16 39 -49 58 -49 13 1 12 4 -7 14
-13 7 -33 29 -43 47 -11 19 -17 26 -14 16z"/>
<path d="M3111 1609 c-23 -37 -27 -59 -10 -59 5 0 8 4 5 8 -3 5 4 23 15 41 11
18 18 36 15 38 -3 3 -14 -10 -25 -28z"/>
<path d="M3470 1608 c-22 -36 -26 -58 -10 -58 6 0 10 7 10 15 0 9 7 29 15 45
21 40 10 38 -15 -2z"/>
<path d="M3675 1630 c3 -5 11 -10 16 -10 6 0 7 5 4 10 -3 6 -11 10 -16 10 -6
0 -7 -4 -4 -10z"/>
<path d="M1646 1601 c-19 -36 -20 -51 -4 -51 6 0 9 3 5 6 -3 4 1 20 9 36 9 17
13 32 10 35 -2 3 -12 -9 -20 -26z"/>
<path d="M3148 1599 c-10 -17 -18 -38 -18 -47 0 -9 9 1 20 23 24 48 22 67 -2
24z"/>
<path d="M1978 1596 c-6 -14 -8 -32 -5 -40 11 -29 22 -17 22 24 1 47 -1 49
-17 16z"/>
<path d="M3311 1610 c1 -29 15 -54 23 -42 4 7 0 22 -8 34 -10 14 -16 17 -15 8z"/>
<path d="M3623 1593 c-3 -10 -8 -21 -9 -24 -2 -4 2 -12 9 -18 11 -8 13 -3 13
24 -1 39 -4 43 -13 18z"/>
<path d="M2690 1569 c-12 -16 -20 -32 -17 -35 2 -3 14 11 25 31 26 43 21 46
-8 4z"/>
<path d="M1458 1553 c12 -2 32 -2 45 0 12 2 2 4 -23 4 -25 0 -35 -2 -22 -4z"/>
<path d="M1509 1297 c5 -5 21 -7 37 -5 27 3 26 4 -8 9 -22 3 -34 1 -29 -4z"/>
</g>
</svg>
